<svg xmlns="http://www.w3.org/2000/svg" width="24" height="24" viewBox="0 0 24 24" fill="none" stroke="currentColor" stroke-width="2" stroke-linecap="round" stroke-linejoin="round">
  <path d="M12 2C6.48 2 2 6.48 2 12s4.48 10 10 10 10-4.48 10-10S17.52 2 12 2zm5.97 6.33h-2.34c-.23 0-.43.2-.43.43v5.48c0 .23.2.43.43.43h2.34c.23 0 .43-.2.43-.43V8.76c0-.23-.2-.43-.43-.43zm-4.97 0h-2.34c-.23 0-.43.2-.43.43v5.48c0 .23.2.43.43.43h2.34c.23 0 .43-.2.43-.43V8.76c0-.23-.2-.43-.43-.43z"/>
  <path d="M7.5 9.5h-2c-.28 0-.5.22-.5.5v4c0 .28.22.5.5.5h2c.28 0 .5-.22.5-.5v-4c0-.28-.22-.5-.5-.5z"/>
</svg>

