<svg width="24" height="25" viewBox="0 0 24 25" fill="none" xmlns="http://www.w3.org/2000/svg">
<path d="M12 13.2407C12 13.4396 11.921 13.6304 11.7803 13.7711C11.6397 13.9117 11.4489 13.9907 11.25 13.9907H6.75C6.55109 13.9907 6.36032 13.9117 6.21967 13.7711C6.07902 13.6304 6 13.4396 6 13.2407C6 13.0418 6.07902 12.851 6.21967 12.7104C6.36032 12.5697 6.55109 12.4907 6.75 12.4907H11.25C11.4489 12.4907 11.6397 12.5697 11.7803 12.7104C11.921 12.851 12 13.0418 12 13.2407ZM11.25 9.49072H6.75C6.55109 9.49072 6.36032 9.56974 6.21967 9.71039C6.07902 9.85105 6 10.0418 6 10.2407C6 10.4396 6.07902 10.6304 6.21967 10.7711C6.36032 10.9117 6.55109 10.9907 6.75 10.9907H11.25C11.4489 10.9907 11.6397 10.9117 11.7803 10.7711C11.921 10.6304 12 10.4396 12 10.2407C12 10.0418 11.921 9.85105 11.7803 9.71039C11.6397 9.56974 11.4489 9.49072 11.25 9.49072ZM21.75 15.6285V21.4907C21.7512 21.6229 21.7174 21.7531 21.6521 21.8681C21.5867 21.983 21.4921 22.0787 21.3779 22.1453C21.2637 22.2119 21.1339 22.2472 21.0017 22.2475C20.8695 22.2478 20.7395 22.2131 20.625 22.147L18.375 20.8588L16.125 22.147C16.0105 22.2131 15.8805 22.2478 15.7483 22.2475C15.6161 22.2472 15.4863 22.2119 15.3721 22.1453C15.2579 22.0787 15.1633 21.983 15.0979 21.8681C15.0326 21.7531 14.9988 21.6229 15 21.4907V19.2407H3.75C3.35218 19.2407 2.97064 19.0827 2.68934 18.8014C2.40804 18.5201 2.25 18.1385 2.25 17.7407V5.74072C2.25 5.3429 2.40804 4.96137 2.68934 4.68006C2.97064 4.39876 3.35218 4.24072 3.75 4.24072H20.25C20.6478 4.24072 21.0294 4.39876 21.3107 4.68006C21.592 4.96137 21.75 5.3429 21.75 5.74072V8.60291C22.2241 9.05693 22.6014 9.60222 22.8592 10.2059C23.1169 10.8096 23.2498 11.4593 23.2498 12.1157C23.2498 12.7722 23.1169 13.4218 22.8592 14.0255C22.6014 14.6292 22.2241 15.1745 21.75 15.6285ZM15 17.7407V15.6285C14.1827 14.8403 13.6662 13.7915 13.5396 12.6631C13.4129 11.5348 13.6842 10.3976 14.3065 9.44781C14.9287 8.49806 15.863 7.79531 16.9481 7.46083C18.0332 7.12636 19.201 7.18114 20.25 7.61572V5.74072H3.75V17.7407H15ZM20.25 16.6157C19.656 16.8639 19.0187 16.9917 18.375 16.9917C17.7313 16.9917 17.094 16.8639 16.5 16.6157V20.1988L18 19.3401C18.1133 19.2753 18.2416 19.2412 18.3722 19.2412C18.5027 19.2412 18.631 19.2753 18.7444 19.3401L20.2444 20.1988L20.25 16.6157ZM21.75 12.1157C21.75 11.4482 21.5521 10.7957 21.1812 10.2407C20.8104 9.68566 20.2833 9.25307 19.6666 8.99763C19.0499 8.74218 18.3713 8.67535 17.7166 8.80557C17.0619 8.9358 16.4605 9.25724 15.9885 9.72924C15.5165 10.2012 15.1951 10.8026 15.0648 11.4573C14.9346 12.112 15.0015 12.7906 15.2569 13.4073C15.5124 14.024 15.9449 14.5511 16.5 14.9219C17.055 15.2928 17.7075 15.4907 18.375 15.4907C18.8182 15.4907 19.2571 15.4034 19.6666 15.2338C20.076 15.0642 20.4481 14.8156 20.7615 14.5022C21.0749 14.1888 21.3235 13.8168 21.4931 13.4073C21.6627 12.9978 21.75 12.5589 21.75 12.1157Z" fill="white"/>
</svg>
