<svg width="24" height="25" viewBox="0 0 24 25" fill="none" xmlns="http://www.w3.org/2000/svg">
<path d="M12.7501 7.99057V12.0659L16.1363 14.0974C16.3069 14.1999 16.4298 14.3659 16.478 14.5589C16.5261 14.752 16.4956 14.9563 16.3932 15.1268C16.2908 15.2974 16.1248 15.4203 15.9317 15.4684C15.7387 15.5166 15.5344 15.4861 15.3638 15.3837L11.6138 13.1337C11.5028 13.067 11.411 12.9727 11.3473 12.86C11.2835 12.7473 11.25 12.62 11.2501 12.4906V7.99057C11.2501 7.79166 11.3291 7.60089 11.4697 7.46024C11.6104 7.31959 11.8012 7.24057 12.0001 7.24057C12.199 7.24057 12.3898 7.31959 12.5304 7.46024C12.6711 7.60089 12.7501 7.79166 12.7501 7.99057ZM21.0001 5.74057C20.8012 5.74057 20.6104 5.81959 20.4697 5.96024C20.3291 6.10089 20.2501 6.29166 20.2501 6.49057V8.17807C19.6548 7.48807 19.0473 6.82338 18.3638 6.13151C17.1131 4.88061 15.5214 4.02603 13.7877 3.67456C12.0541 3.32309 10.2552 3.49031 8.61606 4.15532C6.97688 4.82034 5.57002 5.95366 4.57126 7.41367C3.57251 8.87369 3.02615 10.5957 3.00046 12.3644C2.97477 14.1332 3.47089 15.8703 4.42682 17.3587C5.38275 18.8471 6.7561 20.0208 8.37528 20.7331C9.99445 21.4455 11.7876 21.6649 13.5308 21.3639C15.274 21.0629 16.8898 20.2549 18.1763 19.0409C18.248 18.9732 18.3056 18.892 18.3459 18.802C18.3862 18.712 18.4083 18.615 18.4111 18.5165C18.4139 18.4179 18.3972 18.3198 18.3621 18.2277C18.327 18.1356 18.274 18.0513 18.2063 17.9796C18.1386 17.908 18.0574 17.8504 17.9675 17.8101C17.8775 17.7698 17.7805 17.7476 17.6819 17.7448C17.5834 17.7421 17.4852 17.7587 17.3931 17.7938C17.301 17.829 17.2167 17.8819 17.1451 17.9496C16.0726 18.9603 14.7262 19.6327 13.2739 19.8827C11.8216 20.1328 10.3278 19.9495 8.97908 19.3556C7.63036 18.7618 6.48646 17.7838 5.69024 16.5438C4.89402 15.3037 4.48075 13.8566 4.50205 12.3831C4.52336 10.9096 4.97828 9.47499 5.81001 8.25848C6.64175 7.04198 7.81344 6.09745 9.17876 5.54286C10.5441 4.98827 12.0425 4.8482 13.487 5.14012C14.9315 5.43205 16.2579 6.14305 17.3007 7.18432C18.0638 7.95682 18.7323 8.7012 19.4063 9.49057H17.2501C17.0512 9.49057 16.8604 9.56959 16.7197 9.71024C16.5791 9.85089 16.5001 10.0417 16.5001 10.2406C16.5001 10.4395 16.5791 10.6302 16.7197 10.7709C16.8604 10.9116 17.0512 10.9906 17.2501 10.9906H21.0001C21.199 10.9906 21.3898 10.9116 21.5304 10.7709C21.6711 10.6302 21.7501 10.4395 21.7501 10.2406V6.49057C21.7501 6.29166 21.6711 6.10089 21.5304 5.96024C21.3898 5.81959 21.199 5.74057 21.0001 5.74057Z" fill="white"/>
</svg>
