<svg width="24" height="25" viewBox="0 0 24 25" fill="none" xmlns="http://www.w3.org/2000/svg">
<path d="M21.5934 13.8967C21.3144 13.682 20.9895 13.5345 20.6442 13.4657C20.2988 13.397 19.9422 13.4088 19.6022 13.5002L15.6797 14.4021C15.7709 14.0165 15.7738 13.6154 15.6879 13.2286C15.6021 12.8419 15.4298 12.4796 15.1841 12.1689C14.9383 11.8582 14.6254 11.6071 14.2688 11.4345C13.9122 11.2619 13.5212 11.1723 13.125 11.1724H8.43188C8.03775 11.1714 7.64733 11.2485 7.28319 11.3993C6.91904 11.5501 6.58838 11.7715 6.31031 12.0508L4.18969 14.1724H1.5C1.10218 14.1724 0.720644 14.3304 0.43934 14.6117C0.158035 14.893 0 15.2745 0 15.6724L0 19.4224C0 19.8202 0.158035 20.2017 0.43934 20.483C0.720644 20.7643 1.10218 20.9224 1.5 20.9224H11.25C11.3113 20.9224 11.3724 20.9148 11.4319 20.8999L17.4319 19.3999C17.4701 19.3908 17.5075 19.3782 17.5434 19.3624L21.1875 17.8117L21.2288 17.793C21.579 17.618 21.8789 17.3567 22.1002 17.0338C22.3215 16.7108 22.457 16.3368 22.4939 15.9471C22.5307 15.5573 22.4678 15.1646 22.3109 14.8059C22.154 14.4472 21.9084 14.1343 21.5972 13.8967H21.5934ZM1.5 15.6724H3.75V19.4224H1.5V15.6724ZM20.5716 16.4421L17.0091 17.9589L11.1562 19.4224H5.25V15.2327L7.37156 13.1121C7.51035 12.9722 7.67555 12.8612 7.85758 12.7858C8.03961 12.7103 8.23482 12.6717 8.43188 12.6724H13.125C13.4234 12.6724 13.7095 12.7909 13.9205 13.0019C14.1315 13.2128 14.25 13.499 14.25 13.7974C14.25 14.0957 14.1315 14.3819 13.9205 14.5929C13.7095 14.8038 13.4234 14.9224 13.125 14.9224H10.5C10.3011 14.9224 10.1103 15.0014 9.96967 15.142C9.82902 15.2827 9.75 15.4735 9.75 15.6724C9.75 15.8713 9.82902 16.062 9.96967 16.2027C10.1103 16.3433 10.3011 16.4224 10.5 16.4224H13.5C13.5565 16.4222 13.6127 16.4159 13.6678 16.4036L19.9491 14.9589L19.9781 14.9514C20.1699 14.8982 20.3745 14.9178 20.5527 15.0063C20.7309 15.0949 20.87 15.2463 20.9433 15.4313C21.0167 15.6163 21.0189 15.8219 20.9498 16.0085C20.8806 16.1951 20.7449 16.3495 20.5687 16.4421H20.5716ZM15.375 9.67236C15.5603 9.67257 15.7453 9.65752 15.9281 9.62736C16.1338 10.2382 16.51 10.7774 17.0124 11.1811C17.5147 11.5849 18.1222 11.8364 18.763 11.9058C19.4037 11.9753 20.051 11.8599 20.6282 11.5731C21.2054 11.2864 21.6884 10.8404 22.0202 10.2878C22.352 9.73528 22.5186 9.09927 22.5004 8.45502C22.4821 7.81077 22.2798 7.18521 21.9173 6.6523C21.5548 6.11939 21.0473 5.70142 20.4548 5.4478C19.8623 5.19418 19.2096 5.11552 18.5737 5.22111C18.3757 4.6326 18.0192 4.11011 17.5434 3.71116C17.0676 3.3122 16.4909 3.05225 15.8769 2.9599C15.2629 2.86755 14.6353 2.94639 14.0631 3.18774C13.491 3.42909 12.9966 3.82359 12.6342 4.32783C12.2719 4.83207 12.0556 5.42651 12.0093 6.04572C11.963 6.66493 12.0885 7.28491 12.3718 7.83743C12.6552 8.38995 13.0854 8.85359 13.6153 9.17734C14.1452 9.50108 14.7541 9.67237 15.375 9.67236ZM21 8.54736C21 8.9182 20.89 9.28072 20.684 9.58906C20.478 9.8974 20.1851 10.1377 19.8425 10.2796C19.4999 10.4216 19.1229 10.4587 18.7592 10.3863C18.3955 10.314 18.0614 10.1354 17.7992 9.87319C17.537 9.61097 17.3584 9.27687 17.286 8.91316C17.2137 8.54945 17.2508 8.17244 17.3927 7.82983C17.5346 7.48722 17.775 7.19439 18.0833 6.98836C18.3916 6.78233 18.7542 6.67236 19.125 6.67236C19.6223 6.67236 20.0992 6.86991 20.4508 7.22154C20.8025 7.57317 21 8.05008 21 8.54736ZM15.375 4.42236C15.784 4.42257 16.1818 4.55653 16.5076 4.80381C16.8334 5.0511 17.0695 5.39815 17.1797 5.79205C16.7956 6.06233 16.4721 6.40981 16.2299 6.81225C15.9878 7.2147 15.8323 7.66326 15.7734 8.12924C15.6425 8.15752 15.509 8.17197 15.375 8.17236C14.8777 8.17236 14.4008 7.97482 14.0492 7.62319C13.6975 7.27156 13.5 6.79465 13.5 6.29736C13.5 5.80008 13.6975 5.32317 14.0492 4.97154C14.4008 4.61991 14.8777 4.42236 15.375 4.42236Z" fill="white"/>
</svg>
