<svg width="24" height="25" viewBox="0 0 24 25" fill="none" xmlns="http://www.w3.org/2000/svg">
<path d="M18.75 21.6724H14.1131C14.892 20.9769 15.6266 20.2332 16.3125 19.4458C18.8859 16.4861 20.25 13.3661 20.25 10.4224C20.25 8.23433 19.3808 6.13591 17.8336 4.58873C16.2865 3.04156 14.188 2.17236 12 2.17236C9.81196 2.17236 7.71354 3.04156 6.16637 4.58873C4.61919 6.13591 3.75 8.23433 3.75 10.4224C3.75 13.3661 5.11031 16.4861 7.6875 19.4458C8.37338 20.2332 9.10795 20.9769 9.88688 21.6724H5.25C5.05109 21.6724 4.86032 21.7514 4.71967 21.892C4.57902 22.0327 4.5 22.2235 4.5 22.4224C4.5 22.6213 4.57902 22.812 4.71967 22.9527C4.86032 23.0933 5.05109 23.1724 5.25 23.1724H18.75C18.9489 23.1724 19.1397 23.0933 19.2803 22.9527C19.421 22.812 19.5 22.6213 19.5 22.4224C19.5 22.2235 19.421 22.0327 19.2803 21.892C19.1397 21.7514 18.9489 21.6724 18.75 21.6724ZM5.25 10.4224C5.25 8.63215 5.96116 6.91526 7.22703 5.64939C8.4929 4.38352 10.2098 3.67236 12 3.67236C13.7902 3.67236 15.5071 4.38352 16.773 5.64939C18.0388 6.91526 18.75 8.63215 18.75 10.4224C18.75 15.7877 13.5497 20.2661 12 21.4849C10.4503 20.2661 5.25 15.7877 5.25 10.4224ZM15.75 10.4224C15.75 9.68068 15.5301 8.95566 15.118 8.33897C14.706 7.72229 14.1203 7.24164 13.4351 6.95781C12.7498 6.67399 11.9958 6.59972 11.2684 6.74442C10.541 6.88911 9.8728 7.24627 9.34835 7.77071C8.8239 8.29516 8.46675 8.96335 8.32205 9.69077C8.17736 10.4182 8.25162 11.1722 8.53545 11.8574C8.81928 12.5426 9.29993 13.1283 9.91661 13.5404C10.5333 13.9524 11.2583 14.1724 12 14.1724C12.9946 14.1724 13.9484 13.7773 14.6517 13.074C15.3549 12.3708 15.75 11.4169 15.75 10.4224ZM9.75 10.4224C9.75 9.97736 9.88196 9.54234 10.1292 9.17233C10.3764 8.80232 10.7278 8.51393 11.139 8.34363C11.5501 8.17334 12.0025 8.12878 12.439 8.2156C12.8754 8.30241 13.2763 8.5167 13.591 8.83137C13.9057 9.14604 14.12 9.54695 14.2068 9.98341C14.2936 10.4199 14.249 10.8723 14.0787 11.2834C13.9084 11.6945 13.62 12.0459 13.25 12.2932C12.88 12.5404 12.445 12.6724 12 12.6724C11.4033 12.6724 10.831 12.4353 10.409 12.0134C9.98705 11.5914 9.75 11.0191 9.75 10.4224Z" fill="white"/>
</svg>
