<svg width="24" height="25" viewBox="0 0 24 25" fill="none" xmlns="http://www.w3.org/2000/svg">
<path d="M19.5 4.42236H4.5C4.10218 4.42236 3.72064 4.5804 3.43934 4.8617C3.15804 5.14301 3 5.52454 3 5.92236V11.1724C3 16.1149 5.3925 19.1102 7.39969 20.7527C9.56156 22.5208 11.7122 23.1208 11.8059 23.1461C11.9348 23.1812 12.0708 23.1812 12.1997 23.1461C12.2934 23.1208 14.4413 22.5208 16.6059 20.7527C18.6075 19.1102 21 16.1149 21 11.1724V5.92236C21 5.52454 20.842 5.14301 20.5607 4.8617C20.2794 4.5804 19.8978 4.42236 19.5 4.42236ZM19.5 11.1724C19.5 14.6477 18.2194 17.4686 15.6937 19.5555C14.5943 20.4608 13.344 21.1654 12 21.6367C10.6736 21.1736 9.4387 20.4816 8.35125 19.5921C5.79563 17.5014 4.5 14.6692 4.5 11.1724V5.92236H19.5V11.1724ZM7.71937 13.953C7.57864 13.8123 7.49958 13.6214 7.49958 13.4224C7.49958 13.2233 7.57864 13.0325 7.71937 12.8917C7.86011 12.751 8.05098 12.6719 8.25 12.6719C8.44902 12.6719 8.63989 12.751 8.78063 12.8917L10.5 14.6121L15.2194 9.89174C15.2891 9.82206 15.3718 9.76678 15.4628 9.72907C15.5539 9.69136 15.6515 9.67195 15.75 9.67195C15.8485 9.67195 15.9461 9.69136 16.0372 9.72907C16.1282 9.76678 16.2109 9.82206 16.2806 9.89174C16.3503 9.96142 16.4056 10.0441 16.4433 10.1352C16.481 10.2262 16.5004 10.3238 16.5004 10.4224C16.5004 10.5209 16.481 10.6185 16.4433 10.7095C16.4056 10.8006 16.3503 10.8833 16.2806 10.953L11.0306 16.203C10.961 16.2727 10.8783 16.328 10.7872 16.3658C10.6962 16.4035 10.5986 16.423 10.5 16.423C10.4014 16.423 10.3038 16.4035 10.2128 16.3658C10.1217 16.328 10.039 16.2727 9.96937 16.203L7.71937 13.953Z" fill="white"/>
</svg>
