<svg width="24" height="25" viewBox="0 0 24 25" fill="none" xmlns="http://www.w3.org/2000/svg">
<path d="M22.95 14.7725C22.8712 14.8316 22.7816 14.8746 22.6862 14.8991C22.5908 14.9235 22.4915 14.9289 22.394 14.915C22.2965 14.9011 22.2027 14.8681 22.1179 14.8179C22.0332 14.7677 21.9591 14.7013 21.9 14.6225C21.448 14.0149 20.8596 13.5219 20.1822 13.1832C19.5048 12.8445 18.7574 12.6696 18 12.6725C17.8526 12.6725 17.7083 12.629 17.5855 12.5475C17.4626 12.4659 17.3664 12.35 17.3091 12.2141C17.2702 12.1218 17.2501 12.0227 17.2501 11.9225C17.2501 11.8224 17.2702 11.7232 17.3091 11.631C17.3664 11.4951 17.4626 11.3791 17.5855 11.2976C17.7083 11.216 17.8526 11.1725 18 11.1725C18.4209 11.1725 18.8332 11.0544 19.1903 10.8318C19.5474 10.6091 19.8349 10.2908 20.0201 9.91294C20.2054 9.53509 20.2809 9.11286 20.2382 8.69421C20.1955 8.27557 20.0363 7.87729 19.7786 7.54461C19.5209 7.21194 19.175 6.95821 18.7803 6.81223C18.3856 6.66626 17.9579 6.6339 17.5458 6.71883C17.1336 6.80375 16.7535 7.00257 16.4487 7.29268C16.1439 7.58279 15.9265 7.95258 15.8213 8.36003C15.7967 8.45544 15.7535 8.54507 15.6942 8.6238C15.635 8.70253 15.5608 8.76881 15.4759 8.81887C15.391 8.86893 15.2971 8.90177 15.1995 8.91554C15.102 8.9293 15.0026 8.92372 14.9072 8.89909C14.8118 8.87447 14.7222 8.8313 14.6435 8.77203C14.5647 8.71277 14.4984 8.63858 14.4484 8.5537C14.3983 8.46883 14.3655 8.37492 14.3517 8.27735C14.338 8.17977 14.3435 8.08044 14.3682 7.98503C14.5142 7.42001 14.7901 6.89687 15.1738 6.45723C15.5576 6.0176 16.0387 5.6736 16.5788 5.45261C17.119 5.23162 17.7032 5.13974 18.2851 5.18428C18.867 5.22882 19.4304 5.40855 19.9306 5.70917C20.4308 6.00979 20.8539 6.423 21.1663 6.91592C21.4787 7.40885 21.6718 7.96788 21.7301 8.54854C21.7884 9.1292 21.7104 9.71546 21.5023 10.2607C21.2942 10.8059 20.9617 11.295 20.5313 11.6891C21.5511 12.1307 22.4377 12.8314 23.1028 13.7216C23.1619 13.8006 23.2049 13.8905 23.2292 13.9861C23.2535 14.0817 23.2587 14.1811 23.2445 14.2788C23.2303 14.3764 23.197 14.4703 23.1465 14.555C23.0959 14.6397 23.0292 14.7136 22.95 14.7725ZM17.8988 20.5475C17.9531 20.6329 17.9895 20.7284 18.0059 20.8282C18.0223 20.928 18.0184 21.0301 17.9943 21.1283C17.9703 21.2266 17.9266 21.3189 17.8659 21.3999C17.8052 21.4808 17.7288 21.5486 17.6412 21.5992C17.5536 21.6498 17.4567 21.6822 17.3563 21.6944C17.2559 21.7066 17.154 21.6984 17.0569 21.6702C16.9597 21.642 16.8693 21.5945 16.791 21.5304C16.7127 21.4664 16.6482 21.3872 16.6013 21.2975C16.1288 20.4975 15.456 19.8345 14.6491 19.374C13.8422 18.9134 12.9291 18.6712 12 18.6712C11.0709 18.6712 10.1579 18.9134 9.35102 19.374C8.54412 19.8345 7.87125 20.4975 7.39879 21.2975C7.3519 21.3872 7.28737 21.4664 7.20908 21.5304C7.13078 21.5945 7.04034 21.642 6.94319 21.6702C6.84605 21.6984 6.7442 21.7066 6.64379 21.6944C6.54338 21.6822 6.44647 21.6498 6.35889 21.5992C6.27132 21.5486 6.19489 21.4808 6.1342 21.3999C6.07352 21.3189 6.02983 21.2266 6.00576 21.1283C5.9817 21.0301 5.97775 20.928 5.99417 20.8282C6.01059 20.7284 6.04702 20.6329 6.10129 20.5475C6.82841 19.2982 7.9371 18.315 9.26441 17.7425C8.51753 17.1707 7.96863 16.3792 7.69485 15.4792C7.42108 14.5793 7.4362 13.6162 7.73808 12.7253C8.03997 11.8344 8.61346 11.0605 9.37792 10.5124C10.1424 9.9643 11.0594 9.66953 12 9.66953C12.9407 9.66953 13.8577 9.9643 14.6222 10.5124C15.3866 11.0605 15.9601 11.8344 16.262 12.7253C16.5639 13.6162 16.579 14.5793 16.3052 15.4792C16.0315 16.3792 15.4825 17.1707 14.7357 17.7425C16.063 18.315 17.1717 19.2982 17.8988 20.5475ZM12 17.1725C12.5934 17.1725 13.1734 16.9966 13.6667 16.6669C14.1601 16.3373 14.5446 15.8688 14.7717 15.3206C14.9987 14.7724 15.0582 14.1692 14.9424 13.5873C14.8266 13.0053 14.5409 12.4708 14.1214 12.0512C13.7018 11.6317 13.1673 11.3459 12.5853 11.2302C12.0034 11.1144 11.4002 11.1738 10.852 11.4009C10.3038 11.628 9.83528 12.0125 9.50563 12.5058C9.17599 12.9992 9.00004 13.5792 9.00004 14.1725C9.00004 14.9682 9.31611 15.7312 9.87872 16.2938C10.4413 16.8565 11.2044 17.1725 12 17.1725ZM6.75004 11.9225C6.75004 11.7236 6.67102 11.5329 6.53037 11.3922C6.38972 11.2515 6.19895 11.1725 6.00004 11.1725C5.57922 11.1725 5.16685 11.0544 4.80976 10.8318C4.45267 10.6091 4.16518 10.2908 3.97994 9.91294C3.79471 9.53509 3.71915 9.11286 3.76185 8.69421C3.80455 8.27557 3.9638 7.87729 4.22152 7.54461C4.47923 7.21194 4.82507 6.95821 5.21976 6.81223C5.61445 6.66626 6.04216 6.6339 6.45432 6.71883C6.86648 6.80375 7.24656 7.00257 7.55139 7.29268C7.85622 7.58279 8.07359 7.95258 8.17879 8.36003C8.22852 8.55273 8.35276 8.71778 8.52418 8.81887C8.6956 8.91996 8.90016 8.94882 9.09285 8.89909C9.28555 8.84936 9.4506 8.72513 9.55169 8.5537C9.65279 8.38229 9.68164 8.17773 9.63192 7.98503C9.48589 7.42001 9.21002 6.89687 8.82624 6.45723C8.44246 6.0176 7.96137 5.6736 7.42125 5.45261C6.88112 5.23162 6.29688 5.13974 5.715 5.18428C5.13312 5.22882 4.56967 5.40855 4.06947 5.70917C3.56928 6.00979 3.14614 6.423 2.83375 6.91592C2.52135 7.40885 2.32831 7.96788 2.26998 8.54854C2.21165 9.1292 2.28965 9.71546 2.49777 10.2607C2.70589 10.8059 3.03838 11.295 3.46879 11.6891C2.44999 12.1311 1.56446 12.8317 0.90004 13.7216C0.780569 13.8807 0.729204 14.0808 0.757247 14.2778C0.785289 14.4748 0.890442 14.6526 1.04957 14.7721C1.2087 14.8915 1.40877 14.9429 1.60577 14.9149C1.80278 14.8868 1.98057 14.7817 2.10004 14.6225C2.55209 14.0149 3.14049 13.5219 3.81788 13.1832C4.49526 12.8445 5.24271 12.6696 6.00004 12.6725C6.19895 12.6725 6.38972 12.5935 6.53037 12.4529C6.67102 12.3122 6.75004 12.1214 6.75004 11.9225Z" fill="white"/>
</svg>
